# xmcd CD database file
#
# Track frame offsets:
#	150
#	11532
#	24770
#	38394
#	51871
#	63772
#	74292
#	87340
#	100320
#	114086
#	126467
#	137911
#	153878
#	166954
#	177579
#	190996
#	203462
#	214680
#
# Disc length: 3038 seconds
#
# Revision: 2
# Processed by: cddbd v1.4PL0 Copyright (c) Steve Scherf et al.
# Submitted via: jetAudio 5
#
DISCID=e80bdc12
DTITLE=Various Artist - Hard Luck Blues - CD 3
DYEAR=1900
DGENRE=
TTITLE0=Clarence 'Gatemouth Brown' - Gatemouth Boogie
TTITLE1=Jay Mcshann's Kansas City Stompers - Moten Swing
TTITLE2=Julia Lee and Her Boy Friends - Tonight' The Night
TTITLE3=John Lee Hooker - Sometime
TTITLE4=Floyd Dixon - Pretty Baby
TTITLE5=Tiny Kennedy- It Ain't No Use
TTITLE6=Walter Brown - Squabblin' Woman
TTITLE7=Lowell Fulson - You Gotta Reap
TTITLE8=John Lee Hooker - Snap Them Fingers Boogie
TTITLE9=Julia Lee and Her Boy Friends - When Your Lover Has Gone
TTITLE10=Floyd Dixon - Sad Feeling
TTITLE11=Sonny Terry - Mad Man Blues
TTITLE12=Bis Moten and His Men - When You Want Chili
TTITLE13=Amos Milburn - Nickel Plated Baby
TTITLE14=Lalo Guerrero - Marihuana Boogie
TTITLE15=John Lee Hooker - I Rule My Den
TTITLE16=Walter Brown - Lyin' Woman Blues
TTITLE17=Tommy Dooglas - Tea For Tommy
EXTD=
EXTT0=
EXTT1=
EXTT2=
EXTT3=
EXTT4=
EXTT5=
EXTT6=
EXTT7=
EXTT8=
EXTT9=
EXTT10=
EXTT11=
EXTT12=
EXTT13=
EXTT14=
EXTT15=
EXTT16=
EXTT17=
PLAYORDER=
